<?xml version="1.0" encoding="UTF-8"?>
<svg width="175px" height="70px" viewBox="0 0 175 70" version="1.1" xmlns="http://www.w3.org/2000/svg" xmlns:xlink="http://www.w3.org/1999/xlink">
    <title>black-dog-logo</title>
    <defs>
        <linearGradient x1="0.087474664%" y1="50.0367989%" x2="100.016921%" y2="50.0367989%" id="linearGradient-1">
            <stop stop-color="#BAB2AC" offset="0%"></stop>
            <stop stop-color="#B5ADA6" offset="15.37%"></stop>
            <stop stop-color="#A79E96" offset="31.3%"></stop>
            <stop stop-color="#91867D" offset="47.49%"></stop>
            <stop stop-color="#74685D" offset="63.85%"></stop>
            <stop stop-color="#53473B" offset="80.2%"></stop>
            <stop stop-color="#403428" offset="88.96%"></stop>
        </linearGradient>
    </defs>
    <g id="Page-1" stroke="none" stroke-width="1" fill="none" fill-rule="evenodd">
        <g id="black-dog-logo" fill-rule="nonzero">
            <path d="M49.8656997,43.7904513 C49.8288357,42.2943876 49.8288357,40.7983239 49.7919716,39.3022601 C49.7551076,36.5290688 57.7914637,36.2736433 57.5702796,33.4639626 C57.3859595,31.3840691 56.5012231,29.4866225 55.5058946,27.6621545 C54.6580221,26.1660908 53.9944698,24.159176 52.5567731,23.1374739 C51.5983086,22.4806655 50.41866,22.0063038 49.3496034,21.422474 C46.8428501,20.0723677 44.557281,19.4155593 43.1933123,16.751836 C42.5297599,15.4017297 41.7924796,14.0516234 41.2395193,12.6285384 C40.760287,11.4973683 40.4285109,10.2567301 40.1335987,9.08907056 L39.9861426,8.46875145 C39.8018225,7.81194298 39.6543665,7.11864515 39.5069104,6.46183668 C39.3594543,5.80502821 39.1751342,5.11173038 39.0276781,4.45492191 C38.806494,3.50619857 38.4009898,2.88587946 37.8480295,2.44800715 C37.2582052,1.97364547 36.4471968,2.01013483 35.9679646,2.59396458 C35.8573725,2.73992202 35.7467805,2.95885818 35.5993244,3.10481562 C34.935772,4.16300704 34.788316,5.40364526 34.6777239,6.75375155 C34.5671319,8.21332593 34.4934038,9.67290031 34.4565398,10.9500279 C34.4196758,11.4608789 34.4196758,11.9352406 34.3828118,12.3731129 C34.3828118,12.8109852 34.3828118,13.1758788 34.3828118,13.5407724 C34.3828118,14.4530064 34.3828118,15.2557723 34.3828118,16.0220488 C34.3828118,16.3139637 34.1984917,16.6788573 33.9404435,16.8977935 C33.7929875,16.9342828 33.7192594,16.9707722 33.5718034,16.9707722 C33.2031632,16.9707722 32.981979,16.6788573 32.871387,16.5693892 C32.6502029,16.2774744 32.4290188,15.9855595 32.2815627,15.6936446 C31.8391945,14.9273681 31.3968262,14.2340702 30.954458,13.4677937 C30.4752258,12.6650278 30.0328575,11.8987512 29.5536253,11.1324747 C29.3324412,10.6946024 29.037529,10.2932194 28.7794809,9.8553471 C28.3002487,9.08907056 27.8210164,8.32279401 27.3786482,7.5200281 C26.973144,6.82673027 26.5676398,6.27938988 26.0884075,5.91449629 C25.8672234,5.73204949 25.5723113,5.58609205 25.2405351,5.58609205 C24.8350309,5.58609205 24.4663907,5.76853885 24.2452066,6.1699218 C23.8397024,6.75375155 23.7291103,7.48353874 23.8765664,8.46875145 C24.0977505,9.92832582 24.4295267,11.3149215 24.6875748,12.482581 L24.7613028,12.8474746 C25.056215,14.1246022 25.3511271,15.4017297 25.3142631,16.751836 C25.2773991,18.2478998 25.1668071,18.7952402 23.7291103,19.3425805 C22.7706458,19.7074741 21.8490454,20.1453465 20.9643089,20.51024 L20.5588047,20.6561975 C18.8999238,21.4589634 17.3516351,22.6631122 15.9139383,24.4146015 C14.5131056,26.1296014 12.8173607,27.1513035 10.8267037,27.406729 C9.49959904,27.5891758 8.17249436,27.7716226 6.8822537,27.8810906 C6.25556538,27.9540694 5.62887706,27.9905587 5.00218874,28.0635374 C3.82254013,28.2094949 2.2005233,28.4649204 0.762826567,29.1582182 C0.0992742277,29.4866225 -0.121909885,29.9244948 0.0624102089,30.5813032 C0.209866284,31.2746011 0.652234511,31.8949202 1.0208747,32.2963031 C1.53697096,32.9166222 1.86874713,33.4639626 2.01620321,34.0842817 C2.05306723,34.1937498 2.05306723,34.3032179 2.08993125,34.4856647 C2.12679526,34.6681115 2.16365928,34.8870476 2.23738732,35.0330051 C2.93780368,37.2953454 4.44922845,38.9008772 6.62420557,39.8131112 C7.76699015,40.2874728 9.02036679,40.6888558 10.2000154,41.0902387 C10.7161117,41.2361962 11.2322079,41.418643 11.7483042,41.6010898 C12.3749925,41.7835366 13.0016808,42.0389621 13.6283691,42.2214089 C14.8817458,42.6227918 16.0982584,43.0606641 17.3516351,43.4985365 C22.6600538,45.3959832 27.046872,49.0084297 31.4705543,52.3654508 C35.6730524,55.5400251 40.649695,57.9848121 44.3360969,61.7067268 C46.7322581,64.1515139 49.4970595,65.1732159 51.6351726,67.8369392 C55.8376707,72.8724708 49.1284193,59.188961 49.5339235,56.3063016 C50.0868838,52.3654508 49.9762917,48.3151319 49.8288357,44.4107704 L49.8656997,43.7904513 Z" id="Path" fill="url(#linearGradient-1)"></path>
            <g id="Group" transform="translate(88.494543, 24.393939)" fill="#302519">
                <path d="M0.221126402,14.7303596 L0.221126402,0.66121315 L5.41759684,0.66121315 C6.37581125,0.66121315 7.22346245,0.734681278 7.92369606,0.955085661 C8.58707526,1.13875598 9.17674567,1.39589443 9.58214407,1.726501 C10.0243969,2.05710758 10.3560865,2.42444822 10.5403585,2.90199105 C10.7246305,3.37953388 10.8351937,3.89381077 10.8351937,4.4815558 C10.8351937,4.81216237 10.7983393,5.10603488 10.7246305,5.39990739 C10.6509217,5.6937799 10.5035041,5.95091835 10.2823777,6.24479086 C10.0981057,6.53866337 9.84012487,6.72233369 9.50843527,6.94273808 C9.17674567,7.1264084 8.84505606,7.34681278 8.43965766,7.49374904 C9.36101767,7.71415342 10.0612513,8.08149406 10.5035041,8.59577095 C10.9457569,9.11004785 11.1668833,9.73452693 11.1668833,10.5426763 C11.1668833,11.1304214 11.0563201,11.6814323 10.7983393,12.1957092 C10.5403585,12.7099861 10.2455233,13.1507949 9.76641607,13.5548696 C9.32416327,13.9589443 8.77134726,14.2160827 8.10796806,14.4732212 C7.44458885,14.6568915 6.70750085,14.8038278 5.82299524,14.8038278 L0.184272001,14.8038278 L0.184272001,14.7303596 L0.221126402,14.7303596 Z M3.50116803,6.57539744 L5.23332484,6.57539744 C5.60186884,6.57539744 5.89670404,6.53866337 6.22839365,6.50192931 C6.52322885,6.46519525 6.74435525,6.35499305 7.00233605,6.2080568 C7.18660805,6.09785461 7.37088005,5.87745022 7.48144325,5.6937799 C7.59200646,5.47337552 7.62886086,5.17950301 7.62886086,4.84889643 C7.62886086,4.51828986 7.59200646,4.26115141 7.51829766,4.00401296 C7.44458885,3.78360858 7.33402565,3.59993826 7.11289925,3.48973607 C6.96548165,3.37953388 6.70750085,3.26933169 6.44952005,3.19586356 C6.15468485,3.1591295 5.85984964,3.12239543 5.49130564,3.12239543 L3.57487683,3.12239543 L3.57487683,6.53866337 L3.50116803,6.53866337 L3.50116803,6.57539744 Z M3.50116803,8.77944127 L3.50116803,12.2691773 L5.82299524,12.2691773 C6.26524805,12.2691773 6.63379205,12.2324433 6.89177285,12.1222411 C7.14975365,12.0120389 7.37088005,11.9018367 7.51829766,11.6814323 C7.66571526,11.5344961 7.81313286,11.3140917 7.84998726,11.0936873 C7.88684166,10.910017 7.92369606,10.6528785 7.92369606,10.4324741 C7.92369606,10.2120698 7.88684166,9.95493132 7.81313286,9.73452693 C7.73942406,9.55085661 7.62886086,9.33045223 7.44458885,9.22025004 C7.29717125,9.07331378 7.03919045,8.99984566 6.81806405,8.88964346 C6.52322885,8.81617534 6.22839365,8.77944127 5.78614084,8.77944127 L3.50116803,8.77944127 L3.50116803,8.77944127 Z" id="Shape"></path>
                <polygon id="Path" points="15.7736833 0.257138447 15.7736833 14.7303596 12.7516225 14.7303596 12.7516225 0.257138447"></polygon>
                <path d="M24.8767202,14.7303596 C24.581885,14.7303596 24.3607586,14.6936256 24.2501954,14.6201574 C24.1027778,14.5466893 23.9553602,14.399753 23.8816514,14.1426146 L23.6973794,13.5916036 C23.476253,13.775274 23.2182722,13.9956783 22.9971458,14.1426146 C22.7760194,14.2895509 22.5180386,14.4732212 22.2969122,14.5466893 C22.0757858,14.6568915 21.7809506,14.7303596 21.4861154,14.7670937 C21.1912802,14.8038278 20.896445,14.8405618 20.5647554,14.8405618 C20.0856481,14.8405618 19.6802497,14.8038278 19.3117057,14.6936256 C18.9431617,14.5834234 18.6483265,14.399753 18.3534913,14.1793487 C18.0586561,13.9589443 17.8743841,13.6650718 17.7638209,13.2977311 C17.6164033,12.9303905 17.5795489,12.5263158 17.5795489,12.1222411 C17.5795489,11.7549004 17.6532577,11.4242939 17.8743841,11.0202192 C18.0586561,10.6528785 18.3534913,10.322272 18.8325985,9.99166538 C19.2748513,9.66105881 19.8645217,9.44065442 20.6384642,9.22025004 C21.4124066,9.03657972 22.370621,8.88964346 23.5131074,8.88964346 L23.5131074,8.48556876 C23.5131074,7.89782374 23.4025442,7.45701497 23.1445634,7.19987652 C22.923437,6.90600401 22.554893,6.79580182 22.1126402,6.79580182 C21.7440962,6.79580182 21.4861154,6.83253589 21.2281346,6.90600401 C21.0070082,6.97947214 20.7858818,7.05294027 20.6384642,7.19987652 C20.4910466,7.27334465 20.2699201,7.38354684 20.1225025,7.49374904 C19.9750849,7.56721716 19.7539585,7.60395123 19.5328321,7.60395123 C19.3485601,7.60395123 19.1274337,7.56721716 19.0168705,7.45701497 C18.8694529,7.34681278 18.7220353,7.23661059 18.6483265,7.08967433 L18.0955105,6.13458867 C18.6851809,5.62031178 19.3854145,5.21623707 20.1225025,4.95909863 C20.896445,4.66522612 21.6703874,4.55502392 22.5180386,4.55502392 C23.107709,4.55502392 23.660525,4.62849205 24.1396322,4.84889643 C24.6187394,5.03256675 25.0609922,5.32643927 25.3926818,5.6937799 C25.7612258,6.06112054 25.9823522,6.46519525 26.2034786,6.97947214 C26.3877506,7.45701497 26.4983138,7.97129187 26.4983138,8.55903689 L26.4983138,14.8405618 L24.9872834,14.8405618 L24.9872834,14.7303596 L24.8767202,14.7303596 Z M21.3755522,12.8936564 C21.7809506,12.8936564 22.0757858,12.8201883 22.4074754,12.7099861 C22.7023106,12.5997839 22.9971458,12.3426455 23.291981,12.048773 L23.291981,10.6528785 C22.7023106,10.6528785 22.2232034,10.6896126 21.817805,10.7630807 C21.4124066,10.8365489 21.1544258,10.910017 20.896445,11.0569532 C20.6384642,11.2038895 20.4910466,11.2773576 20.4173377,11.4610279 C20.3436289,11.6446983 20.3067745,11.7916345 20.3067745,11.9385708 C20.3067745,12.3059114 20.3804833,12.5263158 20.6016098,12.636518 C20.7490274,12.8201883 21.0438626,12.8936564 21.3755522,12.8936564 L21.3755522,12.8936564 Z" id="Shape"></path>
                <path d="M35.3065155,7.08967433 C35.2328067,7.19987652 35.1590979,7.27334465 35.0116803,7.38354684 C34.9379715,7.45701497 34.8274083,7.45701497 34.6431363,7.45701497 C34.4588643,7.45701497 34.3483011,7.42028091 34.2377379,7.34681278 C34.1271746,7.27334465 34.0166114,7.19987652 33.8323394,7.1264084 C33.6480674,7.05294027 33.5006498,6.97947214 33.3163778,6.90600401 C33.1321058,6.83253589 32.874125,6.79580182 32.5424354,6.79580182 C32.1738914,6.79580182 31.8790562,6.86926995 31.584221,6.97947214 C31.2893858,7.08967433 31.1051138,7.31007872 30.9208418,7.56721716 C30.7734242,7.78762155 30.5891522,8.11822812 30.5154434,8.48556876 C30.4417346,8.8529094 30.4048802,9.29371817 30.4048802,9.73452693 C30.4048802,10.6896126 30.5891522,11.4610279 30.9576962,11.9753048 C31.3262402,12.4895817 31.8422018,12.7467202 32.505581,12.7467202 C32.874125,12.7467202 33.1321058,12.7099861 33.3532322,12.636518 C33.5375042,12.5630499 33.7217762,12.4528477 33.8691938,12.3426455 C34.0166114,12.2324433 34.1640291,12.1589752 34.2745923,12.048773 C34.3851555,11.9385708 34.5694275,11.9385708 34.7168451,11.9385708 C34.9379715,11.9385708 35.1590979,12.0120389 35.2696611,12.2324433 L36.1541667,13.2977311 C35.8224771,13.6650718 35.5276419,13.9222102 35.1590979,14.1793487 C34.7905539,14.4364871 34.4957187,14.5834234 34.1271746,14.6936256 C33.7586306,14.8038278 33.426941,14.8772959 33.058397,14.9874981 C32.689853,15.0242321 32.3581634,15.0609662 31.9896194,15.0609662 C31.399949,15.0609662 30.8102786,14.950764 30.2206082,14.6936256 C29.6677922,14.4732212 29.188685,14.1426146 28.7464322,13.7018058 C28.3041794,13.2609971 27.9724898,12.7099861 27.7513634,12.085507 C27.530237,11.4610279 27.3828194,10.6896126 27.3828194,9.88146319 C27.3828194,9.18351597 27.4933826,8.48556876 27.714509,7.86108967 C27.898781,7.23661059 28.2304706,6.68559963 28.6727234,6.24479086 C29.1149762,5.76724803 29.6309378,5.39990739 30.2206082,5.17950301 C30.847133,4.8856305 31.584221,4.77542831 32.3581634,4.77542831 C33.1321058,4.77542831 33.8323394,4.8856305 34.4220099,5.14276895 C35.0116803,5.39990739 35.5276419,5.76724803 36.0067491,6.24479086 L35.3065155,7.08967433 L35.3065155,7.08967433 Z" id="Path"></path>
                <path d="M40.2081507,0.257138447 L40.2081507,8.37536657 L40.6504035,8.37536657 C40.8346755,8.37536657 40.9820931,8.33863251 41.0926563,8.30189844 C41.2032195,8.26516438 41.2769283,8.15496219 41.3874915,8.00802593 L43.3039203,5.17950301 C43.4144835,5.03256675 43.5250467,4.8856305 43.7093187,4.81216237 C43.8935907,4.73869424 44.0778627,4.70196018 44.2621347,4.70196018 L47.0262147,4.70196018 L44.4464067,8.26516438 C44.3358435,8.41210063 44.2252803,8.59577095 44.0410083,8.70597314 C43.8567363,8.81617534 43.7093187,8.92637753 43.5619011,9.07331378 C43.8567363,9.29371817 44.1147171,9.58759068 44.3358435,9.95493132 L47.1736323,14.7670937 L44.4464067,14.7670937 C44.2252803,14.7670937 44.0041539,14.7303596 43.8567363,14.6568915 C43.7093187,14.5834234 43.5250467,14.4732212 43.4513379,14.2528168 L41.5349091,10.7263467 C41.4612003,10.5794104 41.3506371,10.4324741 41.2400739,10.3957401 C41.1663651,10.359006 41.0189475,10.322272 40.7978211,10.322272 L40.1712963,10.322272 L40.1712963,14.7670937 L37.1860899,14.7670937 L37.1860899,0.257138447 L40.2081507,0.257138447 L40.2081507,0.257138447 Z" id="Path"></path>
                <path d="M64.3846373,7.67741935 C64.3846373,8.70597314 64.2372197,9.62432474 63.8686757,10.5059423 C63.5001317,11.3875598 63.0210245,12.085507 62.3944997,12.7467202 C61.7679749,13.3711993 60.9940324,13.8487421 60.0726724,14.2160827 C59.1513124,14.5834234 58.1562436,14.7303596 57.087466,14.7303596 L51.5961604,14.7303596 L51.5961604,0.66121315 L57.087466,0.66121315 C58.193098,0.66121315 59.1881668,0.808149406 60.0726724,1.17549004 C60.9940324,1.54283068 61.7311205,2.02037351 62.3944997,2.6448526 C63.0210245,3.26933169 63.5001317,4.00401296 63.8686757,4.8856305 C64.2372197,5.73051397 64.3846373,6.64886557 64.3846373,7.67741935 L64.3846373,7.67741935 Z M61.0308868,7.67741935 C61.0308868,6.97947214 60.957178,6.35499305 60.7360516,5.8039821 C60.5517796,5.25297114 60.2937988,4.77542831 59.9252548,4.3713536 C59.5567108,3.9672789 59.1513124,3.71014045 58.6722052,3.45300201 C58.193098,3.26933169 57.640282,3.12239543 57.0137572,3.12239543 L54.8024932,3.12239543 L54.8024932,12.1957092 L57.0137572,12.1957092 C57.640282,12.1957092 58.193098,12.085507 58.6722052,11.8651026 C59.1513124,11.6814323 59.5935652,11.3508257 59.9252548,10.946751 C60.2569444,10.5426763 60.5149252,10.0651335 60.7360516,9.51412255 C60.957178,8.99984566 61.0308868,8.37536657 61.0308868,7.67741935 L61.0308868,7.67741935 Z" id="Shape"></path>
                <path d="M70.3181957,4.55502392 C71.0921381,4.55502392 71.7923717,4.66522612 72.3820421,4.92236456 C73.0085669,5.14276895 73.5245285,5.51010958 74.0036357,5.95091835 C74.4458885,6.39172712 74.8144325,6.94273808 75.0355589,7.56721716 C75.2566854,8.19169625 75.404103,8.92637753 75.404103,9.69779287 C75.404103,10.5059423 75.2935398,11.2038895 75.0355589,11.8283686 C74.8144325,12.4528477 74.4458885,13.0038586 74.0036357,13.4446674 C73.5613829,13.8854762 73.0085669,14.2528168 72.3820421,14.4732212 C71.7555173,14.6936256 71.0552837,14.8405618 70.3181957,14.8405618 C69.5442533,14.8405618 68.8440197,14.7303596 68.2174949,14.4732212 C67.5909701,14.2160827 67.0750085,13.8854762 66.5959013,13.4446674 C66.1536485,13.0038586 65.7851045,12.4528477 65.5271237,11.8283686 C65.3059973,11.2038895 65.1585797,10.4692082 65.1585797,9.69779287 C65.1585797,8.88964346 65.2691429,8.19169625 65.5271237,7.56721716 C65.7482501,6.94273808 66.1167941,6.39172712 66.5959013,5.95091835 C67.0381541,5.51010958 67.5909701,5.14276895 68.2174949,4.92236456 C68.8808741,4.66522612 69.5442533,4.55502392 70.3181957,4.55502392 L70.3181957,4.55502392 Z M70.3181957,12.673252 C70.9815749,12.673252 71.4975365,12.4528477 71.8292261,11.9753048 C72.1609157,11.497762 72.3083333,10.7263467 72.3083333,9.73452693 C72.3083333,8.74270721 72.1609157,7.97129187 71.8292261,7.49374904 C71.4975365,7.0162062 70.9815749,6.79580182 70.3181957,6.79580182 C69.6179621,6.79580182 69.0651461,7.0162062 68.7703109,7.49374904 C68.4754757,7.97129187 68.2912037,8.74270721 68.2912037,9.73452693 C68.2912037,10.7263467 68.4386213,11.497762 68.7703109,11.9753048 C69.1388549,12.4161136 69.6548165,12.673252 70.3181957,12.673252 L70.3181957,12.673252 Z" id="Shape"></path>
                <path d="M80.563719,4.51828986 C81.0059718,4.51828986 81.4113702,4.55502392 81.7430598,4.62849205 C82.1484582,4.70196018 82.4432934,4.81216237 82.774983,4.99583269 L85.7970438,4.99583269 L85.7970438,6.09785461 C85.7970438,6.24479086 85.7601894,6.42846118 85.6496262,6.50192931 C85.5759174,6.57539744 85.4284998,6.64886557 85.170519,6.72233369 L84.5071398,6.86926995 C84.5808486,7.16314246 84.617703,7.45701497 84.617703,7.78762155 C84.617703,8.30189844 84.5071398,8.74270721 84.2860134,9.14678191 C84.064887,9.55085661 83.8069062,9.91819725 83.4015078,10.1753357 C83.0329638,10.4692082 82.590711,10.6896126 82.1116038,10.7998148 C81.5956422,10.946751 81.0796806,11.0202192 80.5268646,11.0202192 C80.195175,11.0202192 79.9371942,10.9834851 79.642359,10.9834851 C79.4212326,11.0936873 79.3106694,11.2773576 79.3106694,11.4242939 C79.3106694,11.5712301 79.3843782,11.7181664 79.6055046,11.7916345 C79.7529222,11.8651026 80.010903,11.9018367 80.3057382,11.9385708 C80.6005734,11.9753048 80.932263,11.9753048 81.300807,11.9753048 C81.669351,11.9753048 82.0747494,11.9753048 82.4432934,12.0120389 C82.8486918,12.048773 83.2172358,12.085507 83.5857798,12.1957092 C83.9543238,12.2691773 84.2860134,12.3793795 84.5808486,12.5997839 C84.8756838,12.7834542 85.0968102,13.0405927 85.2810822,13.3711993 C85.4284998,13.7018058 85.5759174,14.0691465 85.5759174,14.5466893 C85.5759174,14.9874981 85.4653542,15.4650409 85.2442278,15.8691156 C85.0231014,16.3099244 84.6914118,16.7139991 84.2860134,17.0078716 C83.8437606,17.3384782 83.327799,17.5956166 82.7381286,17.816021 C82.1116038,17.9996913 81.4113702,18.1466276 80.6374278,18.1466276 C79.8634854,18.1466276 79.1632518,18.0731594 78.6104358,17.9262232 C78.0576198,17.7792869 77.5785126,17.5588825 77.1731142,17.3384782 C76.8045702,17.1180738 76.509735,16.8242013 76.325463,16.4935947 C76.141191,16.1629881 76.0306278,15.8691156 76.0306278,15.501775 C76.0306278,15.0609662 76.141191,14.6568915 76.4360262,14.399753 C76.7308614,14.0691465 77.062551,13.8487421 77.5416582,13.7018058 C77.3205318,13.5548696 77.1362598,13.3711993 76.9888422,13.1507949 C76.878279,12.9303905 76.8045702,12.636518 76.8045702,12.2691773 C76.8045702,12.1222411 76.8414246,11.9385708 76.878279,11.7916345 C76.9151334,11.6446983 76.9888422,11.4610279 77.0994054,11.3140917 C77.2099686,11.1671554 77.3205318,10.9834851 77.5048038,10.8732829 C77.6522214,10.7263467 77.8733478,10.5794104 78.0944742,10.5059423 C77.5785126,10.2120698 77.1731142,9.88146319 76.8414246,9.40392036 C76.509735,8.92637753 76.3991718,8.41210063 76.3991718,7.82435561 C76.3991718,7.31007872 76.509735,6.86926995 76.7308614,6.46519525 C76.9151334,6.06112054 77.246823,5.6937799 77.615367,5.43664146 C77.983911,5.14276895 78.4261638,4.95909863 78.9421254,4.81216237 C79.4212326,4.59175799 79.9740486,4.51828986 80.563719,4.51828986 L80.563719,4.51828986 Z M82.8118374,15.0977003 C82.8118374,14.950764 82.774983,14.8038278 82.6644198,14.6936256 C82.5538566,14.6201574 82.4432934,14.5466893 82.2590214,14.4732212 C82.1116038,14.4364871 81.8904774,14.363019 81.669351,14.363019 C81.4482246,14.3262849 81.1902438,14.3262849 80.8954086,14.3262849 C80.6005734,14.3262849 80.3425926,14.3262849 80.0477574,14.3262849 C79.7529222,14.3262849 79.4949414,14.2895509 79.2001062,14.2528168 C79.0158342,14.363019 78.8315622,14.5466893 78.720999,14.6936256 C78.6104358,14.8405618 78.5735814,15.0609662 78.5735814,15.2446365 C78.5735814,15.3915728 78.6104358,15.538509 78.6472902,15.6487112 C78.720999,15.7589134 78.7947078,15.8323815 78.9789798,15.9793178 C79.1263974,16.0527859 79.3475238,16.1262541 79.6055046,16.1629881 C79.9003398,16.1997222 80.195175,16.2364562 80.6005734,16.2364562 C81.0428262,16.2364562 81.4113702,16.1997222 81.669351,16.1629881 C81.9641862,16.1262541 82.1853126,16.0527859 82.3327302,15.9425837 C82.4801478,15.8691156 82.6275654,15.7589134 82.7012742,15.6119772 C82.774983,15.3548387 82.8118374,15.2446365 82.8118374,15.0977003 L82.8118374,15.0977003 Z M80.563719,9.22025004 C81.0428262,9.22025004 81.4482246,9.11004785 81.6324966,8.8529094 C81.853623,8.63250502 81.9641862,8.30189844 81.9641862,7.89782374 C81.9641862,7.49374904 81.853623,7.19987652 81.6324966,6.94273808 C81.4113702,6.72233369 81.0428262,6.57539744 80.563719,6.57539744 C80.0477574,6.57539744 79.6792134,6.68559963 79.4949414,6.94273808 C79.273815,7.16314246 79.1632518,7.49374904 79.1632518,7.89782374 C79.1632518,8.08149406 79.2001062,8.26516438 79.2369606,8.41210063 C79.273815,8.55903689 79.3843782,8.74270721 79.458087,8.8529094 C79.5686502,8.96311159 79.7529222,9.03657972 79.9003398,9.14678191 C80.0846118,9.14678191 80.3425926,9.22025004 80.563719,9.22025004 L80.563719,9.22025004 Z" id="Shape"></path>
                <polygon id="Path" points="1.99013761 35.1544992 0.221126402 35.1544992 0.221126402 21.269023 1.99013761 21.269023"></polygon>
                <path d="M4.75421763,35.1544992 L4.75421763,25.3465041 L5.78614084,25.3465041 C6.00726724,25.3465041 6.19153925,25.4567063 6.26524805,25.7138447 L6.37581125,26.7791326 C6.81806405,26.3015898 7.29717125,25.9342491 7.81313286,25.6403766 C8.32909446,25.3465041 8.95561927,25.1995678 9.65585287,25.1995678 C10.1718145,25.1995678 10.6509217,25.273036 11.0931745,25.4934403 C11.4985729,25.6403766 11.8671169,25.9342491 12.1250977,26.2648557 C12.4199329,26.5954623 12.6042049,26.9628029 12.7516225,27.4403457 C12.8990401,27.9178886 12.9358945,28.3954314 12.9358945,28.9464424 L12.9358945,35.1912332 L11.2037377,35.1912332 L11.2037377,28.9464424 C11.2037377,28.175027 11.0563201,27.6240161 10.6877761,27.2199413 C10.3560865,26.8158666 9.80327047,26.6321963 9.13989127,26.6321963 C8.62392966,26.6321963 8.14482246,26.7423985 7.70256966,26.999537 C7.26031685,27.2199413 6.85491845,27.587282 6.44952005,27.9913567 L6.44952005,35.2279673 L4.68050883,35.2279673 L4.68050883,35.1544992 L4.75421763,35.1544992 Z" id="Path"></path>
                <path d="M20.9332994,26.9628029 C20.8595906,27.1097392 20.7490274,27.1464732 20.5647554,27.1464732 C20.4910466,27.1464732 20.3804833,27.1097392 20.2330657,27.036271 C20.1225025,26.9628029 19.9382305,26.8893348 19.7908129,26.8158666 C19.6433953,26.7423985 19.3854145,26.6689304 19.1642881,26.5954623 C18.9431617,26.5219941 18.6483265,26.4852601 18.2797825,26.4852601 C17.9849473,26.4852601 17.7269665,26.5219941 17.4689857,26.5954623 C17.2478593,26.6689304 17.0267329,26.7423985 16.8793153,26.9260688 C16.7318977,27.036271 16.5844801,27.2199413 16.5107713,27.3668776 C16.4370625,27.5138139 16.4002081,27.7342182 16.4002081,27.9178886 C16.4002081,28.1382929 16.4739169,28.3954314 16.5844801,28.5423676 C16.7318977,28.6893039 16.9161697,28.8729742 17.1372961,28.9831764 C17.3584225,29.0933786 17.6532577,29.2035808 17.9480929,29.313783 C18.2797825,29.3872511 18.5377633,29.4974533 18.8694529,29.6443896 C19.2011425,29.7545918 19.4959777,29.8647939 19.7908129,30.0117302 C20.1225025,30.1219324 20.3436289,30.3056027 20.6016098,30.489273 C20.8595906,30.6729434 21.0438626,30.9300818 21.1912802,31.1872203 C21.3386978,31.4810928 21.3755522,31.8116993 21.3755522,32.17904 C21.3755522,32.6198487 21.3018434,33.0606575 21.1544258,33.4647322 C21.0070082,33.8688069 20.7490274,34.1626794 20.4541921,34.4565519 C20.1225025,34.7504244 19.7539585,34.9708288 19.3117057,35.1177651 C18.8694529,35.2647013 18.3166369,35.3381695 17.7269665,35.3381695 C17.0635873,35.3381695 16.4002081,35.2279673 15.8473921,35.0075629 C15.2945761,34.7871585 14.8154689,34.493286 14.4100705,34.1259454 L14.8154689,33.4647322 C14.8523233,33.3912641 14.9260321,33.317796 14.9997409,33.2810619 C15.0734497,33.2443278 15.1471585,33.2075938 15.2945761,33.2075938 C15.4419937,33.2075938 15.5157025,33.2443278 15.6631201,33.317796 C15.7736833,33.3912641 15.9579553,33.5014663 16.1422273,33.6484025 C16.3264993,33.7953388 16.5476257,33.8320729 16.8056065,33.9790091 C17.1004417,34.0524772 17.3952769,34.0892113 17.8006753,34.0892113 C18.1323649,34.0892113 18.4272001,34.0524772 18.6851809,33.9790091 C18.9063073,33.905541 19.1642881,33.7953388 19.3117057,33.6116685 C19.4591233,33.4279981 19.6065409,33.2810619 19.6802497,33.0973916 C19.7539585,32.9137213 19.7908129,32.6933169 19.7908129,32.4729125 C19.7908129,32.17904 19.7171041,31.9953697 19.6065409,31.8116993 C19.4591233,31.6647631 19.2748513,31.4810928 19.0168705,31.3708906 C18.7957441,31.2606884 18.5009089,31.1504862 18.1692193,31.040284 C17.8375297,30.9668159 17.5426945,30.8566137 17.2110049,30.7464115 C16.8793153,30.6362093 16.5844801,30.5260071 16.2527905,30.3790708 C15.9211009,30.2688687 15.6631201,30.0851983 15.4051393,29.8647939 C15.1840129,29.6811236 14.9628865,29.4239852 14.8523233,29.0933786 C14.7049057,28.7995061 14.6311969,28.4688995 14.6311969,28.0280908 C14.6311969,27.6607501 14.7049057,27.3301435 14.8523233,26.9628029 C14.9997409,26.5954623 15.2577217,26.3383238 15.5157025,26.0444513 C15.8105377,25.7505788 16.1790817,25.5669085 16.6213345,25.4199722 C17.0635873,25.273036 17.5426945,25.1995678 18.0955105,25.1995678 C18.7220353,25.1995678 19.3485601,25.30977 19.8645217,25.5301744 C20.3804833,25.7138447 20.8227362,26.0077172 21.1912802,26.3750579 L20.9332994,26.9628029 L20.9332994,26.9628029 Z" id="Path"></path>
                <path d="M26.3877506,35.3014354 C25.6138082,35.3014354 25.0241378,35.1177651 24.581885,34.6769563 C24.1764866,34.2361476 23.9553602,33.6116685 23.9553602,32.8035191 L23.9553602,26.8158666 L22.7760194,26.8158666 C22.6654562,26.8158666 22.5917474,26.7791326 22.4811842,26.7423985 C22.4074754,26.6689304 22.370621,26.5954623 22.370621,26.448526 L22.370621,25.7873129 L23.9553602,25.6036425 L24.3607586,22.5914493 C24.3607586,22.5179812 24.397613,22.444513 24.4713218,22.3710449 C24.5450306,22.2975768 24.6187394,22.2975768 24.766157,22.2975768 L25.6506626,22.2975768 L25.6506626,25.6771107 L28.4884514,25.6771107 L28.4884514,26.9260688 L25.6506626,26.9260688 L25.6506626,32.8035191 C25.6506626,33.2075938 25.7612258,33.5014663 25.9823522,33.7218707 C26.1666242,33.905541 26.424605,34.0524772 26.7562946,34.0524772 C26.9405666,34.0524772 27.1248386,34.0157432 27.2354018,33.9790091 C27.345965,33.942275 27.4565282,33.8688069 27.6039458,33.8320729 C27.6776546,33.7953388 27.7513634,33.7218707 27.8250722,33.6851366 L27.9724898,33.6116685 C28.0461986,33.6116685 28.1199074,33.6484025 28.1936162,33.7586047 L28.7095778,34.6034882 C28.3778882,34.8973607 28.0461986,35.081031 27.6408002,35.2279673 C27.2722562,35.2279673 26.8300034,35.3014354 26.3877506,35.3014354 L26.3877506,35.3014354 Z" id="Path"></path>
                <path d="M32.689853,22.2608427 C32.689853,22.407779 32.6529986,22.5914493 32.5792898,22.7383856 C32.505581,22.8853218 32.4318722,23.0322581 32.2844546,23.1424603 C32.1738914,23.2526624 32.0633282,23.3261306 31.8790562,23.4363328 C31.7316386,23.5098009 31.5473666,23.5098009 31.399949,23.5098009 C31.2525314,23.5098009 31.0682594,23.4730668 30.9208418,23.4363328 C30.7734242,23.3628646 30.6260066,23.2893965 30.5154434,23.1424603 C30.4048802,23.0322581 30.3311714,22.9220559 30.2206082,22.7383856 C30.1468994,22.5914493 30.1468994,22.407779 30.1468994,22.2608427 C30.1468994,22.1139065 30.1837538,21.9302361 30.2206082,21.7832999 C30.294317,21.6363636 30.3680258,21.4894274 30.5154434,21.3792252 C30.6260066,21.269023 30.7365698,21.1955549 30.9208418,21.0853527 C31.0682594,21.0118846 31.2525314,21.0118846 31.399949,21.0118846 C31.5473666,21.0118846 31.7316386,21.0486186 31.8790562,21.0853527 C32.0264738,21.1588208 32.1738914,21.2322889 32.2844546,21.3792252 C32.3950178,21.4894274 32.4687266,21.5996296 32.5792898,21.7832999 C32.6529986,21.9669702 32.689853,22.1139065 32.689853,22.2608427 L32.689853,22.2608427 Z M32.2844546,25.3465041 L32.2844546,35.1544992 L30.5522978,35.1544992 L30.5522978,25.3465041 L32.2844546,25.3465041 L32.2844546,25.3465041 Z" id="Shape"></path>
                <path d="M38.0337411,35.3014354 C37.2597987,35.3014354 36.6701283,35.1177651 36.2278755,34.6769563 C35.8224771,34.2361476 35.6013507,33.6116685 35.6013507,32.8035191 L35.6013507,26.8158666 L34.4220099,26.8158666 C34.3114467,26.8158666 34.2377379,26.7791326 34.1271746,26.7423985 C34.0534658,26.6689304 34.0166114,26.5954623 34.0166114,26.448526 L34.0166114,25.7873129 L35.6013507,25.6036425 L36.0067491,22.5914493 C36.0067491,22.5179812 36.0436035,22.444513 36.1173123,22.3710449 C36.1910211,22.2975768 36.2647299,22.2975768 36.4121475,22.2975768 L37.2966531,22.2975768 L37.2966531,25.6771107 L40.1344419,25.6771107 L40.1344419,26.9260688 L37.2966531,26.9260688 L37.2966531,32.8035191 C37.2966531,33.2075938 37.4072163,33.5014663 37.6283427,33.7218707 C37.8126147,33.905541 38.1074499,34.0524772 38.4022851,34.0524772 C38.5865571,34.0524772 38.7339747,34.0157432 38.8813923,33.9790091 C38.9919555,33.942275 39.1025187,33.8688069 39.2499363,33.8320729 C39.3236451,33.7953388 39.3973539,33.7218707 39.4710627,33.6851366 L39.6184803,33.6116685 C39.6921891,33.6116685 39.7658979,33.6484025 39.8396067,33.7586047 L40.3555683,34.6034882 C40.0607331,34.8973607 39.7290435,35.081031 39.2867907,35.2279673 C38.8813923,35.2279673 38.4759939,35.3014354 38.0337411,35.3014354 L38.0337411,35.3014354 Z" id="Path"></path>
                <path d="M43.4881923,25.3465041 L43.4881923,31.591295 C43.4881923,32.3627103 43.6356099,32.9137213 44.0041539,33.317796 C44.3726979,33.7218707 44.8886595,33.905541 45.5520387,33.905541 C46.0680003,33.905541 46.5471075,33.7953388 46.9893603,33.5382003 C47.4316131,33.2810619 47.873866,32.9871894 48.24241,32.5463806 L48.24241,25.30977 L49.9745668,25.30977 L49.9745668,35.1177651 L48.9426436,35.1177651 C48.7215172,35.1177651 48.5372452,35.0075629 48.4635364,34.7504244 L48.3529732,33.6851366 C47.9107204,34.1626794 47.4316131,34.5300201 46.9156515,34.8238926 C46.3996899,35.1177651 45.7731651,35.2647013 45.0729315,35.2647013 C44.5569699,35.2647013 44.0778627,35.1912332 43.6356099,34.9708288 C43.2302115,34.8238926 42.8616675,34.5300201 42.6036867,34.1994135 C42.3088515,33.8688069 42.1245795,33.5014663 41.9771619,33.0606575 C41.8665987,32.5831147 41.7928899,32.1055718 41.7928899,31.5545609 L41.7928899,25.30977 L43.4881923,25.3465041 L43.4881923,25.3465041 Z" id="Path"></path>
                <path d="M55.429018,35.3014354 C54.6550756,35.3014354 54.0654052,35.1177651 53.6231524,34.6769563 C53.217754,34.2361476 52.9966276,33.6116685 52.9966276,32.8035191 L52.9966276,26.8158666 L51.8172868,26.8158666 C51.7067236,26.8158666 51.6330148,26.7791326 51.5224516,26.7423985 C51.4487428,26.6689304 51.4118884,26.5954623 51.4118884,26.448526 L51.4118884,25.7873129 L52.9966276,25.6036425 L53.402026,22.5914493 C53.402026,22.5179812 53.4388804,22.444513 53.5125892,22.3710449 C53.586298,22.2975768 53.6600068,22.2975768 53.8074244,22.2975768 L54.69193,22.2975768 L54.69193,25.6771107 L57.5297188,25.6771107 L57.5297188,26.9260688 L54.69193,26.9260688 L54.69193,32.8035191 C54.69193,33.2075938 54.8024932,33.5014663 55.0236196,33.7218707 C55.2078916,33.905541 55.5027268,34.0524772 55.797562,34.0524772 C55.981834,34.0524772 56.1292516,34.0157432 56.2766692,33.9790091 C56.3872324,33.942275 56.4977956,33.8688069 56.6452132,33.8320729 C56.718922,33.7953388 56.7926308,33.7218707 56.8663396,33.6851366 L57.0137572,33.6116685 C57.087466,33.6116685 57.1611748,33.6484025 57.2348836,33.7586047 L57.7508452,34.6034882 C57.45601,34.8973607 57.1243204,35.081031 56.6820676,35.2279673 C56.3135236,35.2279673 55.8712708,35.3014354 55.429018,35.3014354 L55.429018,35.3014354 Z" id="Path"></path>
                <path d="M63.3158597,25.1628338 C63.9055301,25.1628338 64.4214917,25.2363019 64.9374533,25.4567063 C65.4165605,25.6403766 65.8588133,25.9342491 66.2273573,26.3015898 C66.5959013,26.6689304 66.8538821,27.1464732 67.0750085,27.6974842 C67.2592805,28.2484951 67.4066981,28.8362402 67.4066981,29.5709214 C67.4066981,29.8647939 67.3698437,30.0117302 67.3329893,30.1219324 C67.2961349,30.1954005 67.1855717,30.2321346 67.0012997,30.2321346 L60.4412164,30.2321346 C60.4412164,30.8566137 60.5149252,31.3708906 60.6623428,31.8484334 C60.8097604,32.3259762 61.0308868,32.6933169 61.2888676,32.9871894 C61.5837029,33.317796 61.8785381,33.5014663 62.2470821,33.6484025 C62.6156261,33.7953388 63.0578789,33.8688069 63.5369861,33.8688069 C63.9792389,33.8688069 64.3477829,33.8320729 64.6426181,33.7218707 C64.9743077,33.6116685 65.2322885,33.5382003 65.4534149,33.3912641 C65.6745413,33.2810619 65.8588133,33.1708597 66.0062309,33.0606575 C66.1536485,32.9871894 66.3010661,32.9137213 66.4116293,32.9137213 C66.5590469,32.9137213 66.6327557,32.9504553 66.7433189,33.0606575 L67.2224261,33.6851366 C67.0381541,33.905541 66.7433189,34.1626794 66.4484837,34.3463497 C66.1536485,34.5300201 65.8588133,34.7136904 65.4902693,34.8238926 C65.1217253,34.9340948 64.8268901,35.0075629 64.4583461,35.1177651 C64.0898021,35.1912332 63.7581125,35.1912332 63.3895685,35.1912332 C62.7261893,35.1912332 62.0628101,35.081031 61.5099941,34.8238926 C60.957178,34.5667541 60.4412164,34.2728816 60.035818,33.8320729 C59.6304196,33.3912641 59.2618756,32.8402531 59.0776036,32.215774 C58.8564772,31.591295 58.7090596,30.8198796 58.7090596,29.9749961 C58.7090596,29.313783 58.8196228,28.6525698 59.0407492,28.0648248 C59.2618756,27.4770798 59.5567108,26.9628029 59.9621092,26.5219941 C60.3675076,26.0811854 60.8466148,25.7138447 61.3994308,25.4934403 C61.9522469,25.3465041 62.5787717,25.1628338 63.3158597,25.1628338 L63.3158597,25.1628338 Z M63.3527141,26.448526 C62.5050629,26.448526 61.8785381,26.6689304 61.3994308,27.1464732 C60.9203236,27.6240161 60.6254884,28.2852292 60.5149252,29.1301127 L65.8588133,29.1301127 C65.8588133,28.726038 65.8219589,28.3586973 65.7113957,28.0280908 C65.6008325,27.6974842 65.4165605,27.4036117 65.2322885,27.1464732 C65.0480165,26.8893348 64.7531813,26.7056645 64.4214917,26.5954623 C64.0898021,26.5219941 63.7581125,26.448526 63.3527141,26.448526 L63.3527141,26.448526 Z" id="Shape"></path>
            </g>
            <path d="M59.7256558,30.7575758 L59.6886677,30.7575758 L59.7256558,30.7575758 Z" id="Path" fill="#9D5B16"></path>
            <path d="M58.4606985,70 C57.7499949,70 57.0018859,69.9630125 56.2911823,69.926025 C55.1316133,69.8890376 53.8972334,69.7780751 52.7750698,69.3342254 C52.1765826,69.1123006 51.5780954,68.6684509 51.0918245,68.1876137 C50.2689046,67.3369017 49.6330119,66.3382399 48.8474974,65.4505404 C48.2864157,64.8217534 47.650523,64.2669412 47.0146303,63.6381541 C46.4161431,63.083342 45.8550613,62.5285298 45.2191686,61.8997427 C45.0321414,61.7148054 44.8077087,61.4189056 44.5832759,61.2339682 C43.6855451,60.4572312 43.1244633,59.4585693 42.7504088,58.42292 C41.7404616,55.7598217 40.8053253,53.0227485 39.7953781,50.3226627 C39.2342964,48.8431637 38.4487819,47.4376396 37.7380783,45.995128 C37.3266183,45.1814036 37.2518074,44.3676791 37.3640238,43.4799797 C37.551051,42.0744556 37.9999165,40.7429065 38.7854309,39.5593072 C39.2342964,38.8565452 39.7953781,38.301733 40.6182981,37.9688457 C42.1519216,37.3030712 43.1992742,36.0824845 43.9099778,34.6029854 C44.6954923,33.012524 46.0420886,31.5330249 47.8375502,31.0152003 C48.2864157,30.9042378 48.7352811,30.7932754 49.2215519,30.7932754 C49.558201,30.7932754 49.7826337,30.7932754 49.8948501,30.4603881 C50.30631,29.3877513 50.3811209,28.3151145 50.30631,27.1315153 C50.1566882,25.0972041 49.4459847,23.1738553 48.9597138,21.2135191 C48.7726865,20.4367821 48.6230647,19.6970326 48.5856593,18.8833081 C48.5108484,17.6997089 48.5482538,16.4791222 48.4734429,15.2955229 C48.4360375,14.5187859 48.2864157,13.8160239 48.1367938,13.0392869 C47.987172,12.0036376 47.7627393,10.9679882 47.6131175,9.93233891 C47.4260903,8.60078977 47.0520358,7.38020306 46.5657649,6.12262888 C46.079494,4.79107974 45.5558177,3.53350555 45.5932231,2.12798146 C45.5932231,0.981369706 46.2291158,0.204632709 47.4260903,0.0566828046 C48.5856593,-0.0912670996 49.969661,0.0196953285 50.9047973,0.759444849 C52.3636099,1.90605661 53.036908,3.97735527 53.5605843,5.67877916 C53.7102061,6.19660383 53.8598279,6.71442849 53.9720443,7.26924063 C54.3835043,9.11861443 54.7949642,11.0049757 55.1316133,12.817362 C55.356046,14.1119237 55.4682624,15.3694979 55.6926951,16.6640595 C55.9171278,18.0325962 56.2911823,19.3271578 56.5530205,20.658707 C56.7400477,21.6943563 56.9644804,22.7300056 57.0766968,23.7656549 C57.1515077,24.5423919 57.1141022,25.2821415 57.1515077,26.0588785 C57.2263186,27.0575403 57.3011295,28.0562022 57.9370222,28.9439016 C58.8721585,30.2754507 60.7798365,30.3494257 61.7149728,29.0178765 C62.6127036,27.7233149 63.5478399,26.5027282 64.1837326,25.0602166 C64.7448144,23.7656549 65.3058961,22.5080808 65.8295725,21.1765316 C66.5028706,19.4381203 67.4006014,17.8106713 68.3357377,16.2571973 C69.3456849,14.5187859 70.3556321,12.8543495 70.8793084,10.8940133 C71.2159575,9.784389 71.4777957,8.60078977 71.8892556,7.49116549 C72.338121,6.2335913 72.9366083,5.12396702 74.1335827,4.42120498 C75.2183408,3.75543041 76.5275316,3.97735527 77.4252625,4.64312983 C78.3603988,5.34589188 78.6222369,6.41852868 78.8092642,7.49116549 C78.8840751,8.11995258 78.9214805,8.78572715 78.8840751,9.45150172 C78.8092642,11.5597879 78.4352097,13.668074 77.5748843,15.6284102 C76.7145589,17.6257339 75.8916389,19.5860702 75.068719,21.5833939 C74.6198536,22.7300056 74.3580154,23.9505923 73.8717446,25.0972041 C73.3854737,26.3547783 72.7869865,27.5383775 72.2633101,28.7219767 C71.590012,30.4603881 70.841903,32.1248245 70.2060103,33.8262484 C68.9342249,37.2660837 70.018983,42.185418 69.6075231,45.8471781 C69.0838468,50.4336252 66.203627,57.7571454 68.2235214,62.1216676 C68.5601704,62.8984046 68.8968195,63.6381541 68.859414,64.4888661 C68.8220086,65.339578 68.2983323,66.0423401 67.7746559,66.7081146 C67.2135742,67.3738892 66.4654651,67.8917139 65.7547616,68.2985761 C64.1837326,69.1862755 62.3508655,69.5931378 60.5928092,69.7410877 C59.8821057,70 59.1339966,70 58.4606985,70 Z" id="Path" fill="#F59B10"></path>
            <path d="M53.8161413,42.1230687 C54.1553865,42.9310957 54.2684682,43.8493082 54.7584891,44.5471497 C55.1731222,45.1715342 55.8893066,45.5020907 56.5301032,45.9061042 C56.7562666,46.0530182 57.057818,46.2366607 57.2462875,46.4203032 C57.3593693,46.5304887 57.8116963,47.0814162 58.0378598,46.9712307 C58.1886354,46.8610452 58.0755537,46.5304887 58.1132476,46.3835747 C58.1886354,45.6122762 58.6786563,44.9511632 59.1686772,44.3635072 C59.281759,44.2165932 59.4702285,44.0329507 59.6210042,43.8493082 C60.1110251,43.3351092 60.7141277,42.7107247 60.7141277,42.7107247 C62.2595783,41.0946707 62.5988235,39.2582457 62.5988235,39.2582457 C62.6365174,39.0746033 62.6742113,38.4502188 62.37266,38.8175038 C61.9580269,39.2949742 61.7318635,39.8826302 61.2795365,40.3601007 C60.9402912,40.7273857 60.6387399,41.0212137 60.2994947,41.3517702 C59.9225555,41.6823267 59.4325346,42.1965257 58.9048198,42.1965257 C58.4524928,42.1965257 58.2640233,41.7925122 58.4147989,41.3884987 C58.4901867,41.1681277 58.377105,40.9110282 58.2263293,40.7273857 C57.6609206,40.0295442 56.6808788,39.9193587 55.8516127,39.5888022 C55.5500614,39.4786167 55.2108161,39.2949742 55.0223465,39.0378748 C54.833877,38.7073183 54.9092648,38.3400333 55.0223465,38.0094768 C55.0600405,37.9360198 55.24851,37.3850923 55.0223465,37.3850923 C54.7207952,37.3850923 54.4192439,38.0094768 54.3438561,38.2298478 C54.1930804,38.6338613 54.1553865,39.1480603 53.7784473,39.4786167 C53.6276717,39.6255307 53.3638143,39.7724447 53.2884264,39.9928157 C53.2130386,40.2131867 53.2507325,40.5070147 53.3261204,40.7641142 C53.4392021,41.1681277 53.6276717,41.6455982 53.8161413,42.1230687 Z M50.385995,45.1348057 C50.2729132,45.0980772 50.1598315,45.0613487 50.0467497,45.0246202 C49.9713619,44.9878917 49.481341,44.8409777 49.5567288,45.0246202 C49.6321167,45.2449912 50.0090558,45.3919052 50.1975254,45.5020907 C50.838322,45.9061042 51.4791185,46.3468462 52.0445272,46.8610452 C52.3837725,47.1916017 52.6853238,47.5588867 52.5722421,48.0363572 C52.4591603,48.4036422 52.4591603,48.5872847 52.5722421,48.6974702 C52.609936,48.7709272 52.6853238,48.8076557 52.7984055,48.8076557 C53.1376508,48.8076557 53.1753447,48.4770992 53.2507325,48.2567282 C53.3638143,47.7792577 53.3638143,47.3017872 53.0999569,46.8610452 C52.7607116,46.3835747 52.2706907,46.0162897 51.7806698,45.7591902 C51.4791185,45.6122762 51.2152611,45.4286337 50.9137098,45.3184482 C50.6498524,45.2817197 50.5367706,45.2082627 50.385995,45.1348057 Z M45.5769392,5.03396297 C45.6146331,5.18087696 45.6900209,5.36451946 45.7277148,5.51143346 C45.8407966,5.84198996 45.9538783,6.09908946 46.0669601,6.39291745 C46.556981,7.64168644 46.9339201,8.85372693 47.1223897,10.1759529 C47.2731653,11.2043509 47.4993288,12.2327489 47.6501045,13.2611469 C47.7631862,14.0324454 47.9516558,14.7302868 47.9893497,15.5015853 C48.0647376,16.6768973 48.0270437,17.8889378 48.1024315,19.0642498 C48.1401254,19.8355483 48.2532071,20.6068468 48.4793706,21.3781453 C48.9693915,23.3247558 49.6855759,25.2346378 49.8363516,27.2547052 C49.9117394,28.3932887 49.8363516,29.4951437 49.4217185,30.5602702 C49.3463307,30.7071842 49.3086368,30.7806412 49.195555,30.8540982 C49.7609638,30.8908267 50.2886786,31.1479262 50.6656177,31.5152112 C51.004863,31.8457677 51.3818021,33.0210797 52.0225987,32.6905232 C52.6257013,32.3599667 52.3995378,31.6253967 52.0979865,31.0744692 C51.1179447,29.1645872 50.7410055,26.9241487 50.552536,24.8306243 C50.2132907,21.2312313 50.4017603,17.5951098 50.0625151,13.9957169 C49.9871272,12.9673189 49.8363516,11.9389209 49.5348003,10.9105229 C48.9316976,8.52317044 47.8385741,6.57655995 46.556981,4.51976397 C46.2554296,4.04229347 46.0292661,3.49136598 45.9161844,2.94043848 C45.8031027,2.42623949 45.7277148,1.87531199 45.8407966,1.361113 C45.9161844,1.140742 45.9915722,0.920371 46.1423479,0.7 C46.1423479,0.7 45.652327,0.846914 45.4261635,1.3243845 C45.3507757,1.50802699 45.2753878,1.69166949 45.2376939,1.91204049 C45.2,2.09568299 45.2,2.31605399 45.2,2.49969649 C45.2,2.79352448 45.2376939,3.05062398 45.2753878,3.34445198 C45.2,3.85865097 45.3507757,4.44630697 45.5769392,5.03396297 Z M73.7090547,4.6836425 C72.5405433,5.38148399 71.8997468,6.52006748 71.4474198,7.73210797 C71.0327867,8.83396296 70.7689293,9.97254647 70.4296841,11.11113 C69.9019693,13.021012 68.8842335,14.7105229 67.8664978,16.4367624 C66.886456,18.0160879 66.019496,19.6321419 65.3410055,21.3216529 C64.8132907,22.6438789 64.2101881,23.8926479 63.6824732,25.1781454 C63.0416767,26.6105568 62.1370227,27.8960543 61.1946748,29.1080948 C60.8554296,29.5488368 60.3654087,29.9161218 59.8,29.9895788 C61.571614,30.3568638 63.9840246,26.7574708 63.9840246,26.7574708 C64.2855759,26.3534574 64.5494333,25.9127154 64.8509846,25.5087019 C65.3410055,24.8475889 65.8310264,24.1497474 66.2833534,23.4886344 C66.7356804,22.8275214 67.1880074,22.1296799 67.6026404,21.4318384 C69.7511936,17.7222599 72.1259103,12.8373695 72.691319,8.06266447 C73.0305642,5.30802699 73.9729121,4.646914 74.0482999,4.5 C73.8975243,4.6101855 73.7844425,4.646914 73.7090547,4.6836425 Z M60.281759,61.2339552 C59.9425137,61.0503127 59.6032685,60.7932132 59.3017172,60.5728422 C59.1886354,60.4626567 59.1132476,60.3891997 59.0001658,60.2055572 C58.5101449,59.3240732 57.1908579,58.9567882 57.1908579,58.9567882 C56.5123674,58.7731457 55.833877,58.4793177 55.2307743,58.1120327 C54.8538352,57.9283902 54.5145899,57.7080192 54.2130386,57.4509197 C53.8360995,57.0836347 53.8360995,56.7898067 53.7607116,56.3123362 C53.6853238,55.8715942 53.5345481,55.4675807 53.1953029,55.1370242 C52.705282,54.6595537 52.2152611,54.3289972 52.1021794,53.6678842 C51.9890976,53.0067712 51.9137098,52.2722012 51.9137098,51.5743597 C51.9137098,51.4274458 51.8760159,51.1703463 51.800628,51.0234323 C51.6498524,50.8030613 51.3483011,51.1336178 51.2352193,51.2438033 C51.1598315,51.3907173 51.0844436,51.5376312 51.0090558,51.6845452 C50.9713619,51.7580022 50.933668,51.8681877 50.8959741,51.9783732 C50.7075045,52.4191152 50.4059532,52.6394862 49.9159323,52.4925722 C49.5012992,52.3823867 49.1997479,52.0885587 48.8605026,51.8681877 C48.5589513,51.6845452 48.2950939,51.4274458 48.0312365,51.1703463 C47.805073,50.8397898 47.5789095,50.5826903 47.2019704,50.3990478 C46.8250312,50.2521338 46.5988677,50.2521338 46.2973164,49.9215773 C45.9957651,49.6277493 45.9203773,48.8564508 46.2219286,48.4891658 C45.7319077,48.6728083 45.2795807,49.5542923 45.2418868,50.0317628 C44.7895598,48.9299078 45.0911111,47.6444103 45.6942138,46.6527408 C46.1088468,46.0283563 46.5611738,45.4039718 47.1265825,44.8897728 C47.4658278,44.5592163 47.9181548,44.4123023 48.2197061,44.0817458 C48.4458696,43.8613748 48.5966452,43.5308183 48.5212574,43.2002618 C48.0689304,41.5842078 46.5988677,40.3721673 46.4480921,38.6459279 C46.4103982,38.0950004 46.5234799,37.6175299 46.6365617,37.1033309 C46.7496434,36.5524034 46.033459,36.6625889 45.7319077,36.8095029 C45.2795807,37.1033309 44.9403355,37.5808014 44.714172,38.0582719 C44.261845,38.9030274 44.1487632,40.0416108 44.1110693,40.9598233 C44.1110693,41.1434658 44.1110693,41.3271083 44.0733754,41.5107508 C44.0356815,42.1718638 44.1864572,43.4940898 43.1687215,43.5308183 C42.7540884,43.5308183 42.490231,43.2002618 42.1886797,42.9798908 C41.7740466,42.6493343 41.2840257,42.3555063 40.8316987,42.7962483 C40.4924535,43.1268048 40.3793717,43.6042753 40.0024326,43.8613748 C39.5124117,44.2653883 38.9470029,43.7144608 38.456982,43.5675468 C38.0046551,43.4573613 37.590022,43.5675468 37.4015524,43.9715603 C37.2507768,44.3021168 37.2507768,44.6326733 37.2507768,44.9999583 C37.2884707,45.3672433 37.3261646,45.6977998 37.4015524,46.0283563 C37.4769403,46.3221843 37.6277159,46.5792838 37.8161855,46.8363833 C37.9669611,47.1302113 38.1177368,47.4240393 38.2685125,47.7178673 C38.5700638,48.3055233 38.8716151,48.8931793 39.1731664,49.5175638 C39.3239421,49.8481203 39.4747178,50.1786768 39.6254934,50.5092333 C40.680923,53.1536852 41.585577,55.8715942 42.6033127,58.5527747 C42.942558,59.3975302 43.3194971,60.2055572 43.9979876,60.9033987 C45.5057442,62.4827242 47.2773582,63.8416786 48.7474209,65.4577326 C49.5389931,66.3392166 50.2174836,67.2941576 51.0090558,68.1756416 C51.4613828,68.6531121 52.0644854,69.0938541 52.705282,69.3142251 C53.7984055,69.7549671 55.0423047,69.8651526 56.24851,69.9018811 C56.3615918,69.9018811 56.4746735,69.9018811 56.5877553,69.9018811 C56.6254492,69.9018811 56.6254492,69.9018811 56.6254492,69.9018811 C56.1731222,69.3876821 55.7584891,68.8734831 55.3061622,68.3592841 C54.7030595,67.5879856 54.1376508,66.7799586 53.6476299,65.9352031 C53.2706907,65.3475471 52.9314455,64.6129771 52.8560577,63.9151356 C52.8560577,63.8049501 52.8560577,63.6947647 52.8560577,63.5845792 C52.9691394,62.8867377 53.5722421,62.5561812 54.3638143,62.4827242 C54.7407534,62.4459957 55.2307743,62.4459957 55.5700196,62.5194527 C55.9092648,62.5929097 56.2108161,62.7030952 56.4746735,62.8867377 C56.7762248,63.0336517 57.0400823,63.2540227 57.3039397,63.4743937 C57.4924092,63.6580362 57.7939606,63.9151356 58.1332058,63.9885926 C58.4347571,64.0253211 58.6986145,63.8416786 58.8116963,63.5845792 C58.924778,63.4009367 59.0001658,63.1438372 59.0378598,62.9234662 C59.0378598,62.8867377 59.0378598,62.8500092 59.0755537,62.7765522 C59.1886354,61.4175977 59.9048198,61.8216112 59.9048198,61.8216112 C61.4125764,62.7765522 63.2972722,62.4459957 64.691947,61.4543262 C64.8050288,61.3808692 64.9934984,61.2706837 65.1065801,61.1237697 C65.0311923,61.1972267 64.7673349,61.2706837 64.6542531,61.3074122 C63.1841904,61.9317967 61.5633521,62.0052537 60.281759,61.2339552 Z M45.0711529,56.7777401 C44.5057442,56.9981111 44.0157233,55.4922426 44.0157233,55.4922426 C43.8272537,54.9045866 43.1487632,54.5005731 43.1487632,54.5005731 C41.6410066,53.3252611 41.4525371,51.5990216 41.4525371,51.5990216 C41.3017614,50.7542662 40.6609648,50.0564247 40.6609648,50.0564247 C39.9824744,49.4687687 40.3594135,49.0647552 40.3594135,49.0647552 C40.7363527,48.6974702 41.037904,49.1382122 41.2640675,49.4320402 C41.5656188,49.7993252 41.8294762,50.1298817 42.0933336,50.5338952 C42.6210484,51.3786507 43.1110693,52.2968631 43.5257024,53.1783471 C43.6387841,53.5456321 43.7518659,53.8761886 43.9026416,54.2434736 C44.0911111,54.9045866 44.6188259,55.5289711 44.6188259,55.5289711 C45.5234799,56.4471836 45.0711529,56.7777401 45.0711529,56.7777401 Z" id="Shape" fill="#E04613"></path>
        </g>
    </g>
</svg>